# xmcd
#
# Track frame offsets:
#	150
#	35244
#	56436
#	76192
#	111131
#	160069
#	180499
#	217322
#	240728
#	260877
#
# Disc length: 3965 seconds
#
# Revision: 1
# Processed by: cddbd v1.5.2PL0 Copyright (c) Steve Scherf et al.
# Submitted via: EZCDAudioConverter 8.0.2.1
#
DISCID=8c0f7b0a
DTITLE=Mạnh Quỳnh, Phi Nhung - Tân Cổ Giao Duyên 3
DYEAR=2004
DGENRE=East Asia
TTITLE0=Mạnh Quỳnh, Phi Nhung - Vọng cổ. Duyên quê
TTITLE1=Mạnh Quỳnh, Phi Nhung - Về quê em
TTITLE2=Phi Nhung - Chim sáo phương Nam
TTITLE3=Mạnh Quỳnh, Phi Nhung - Tân cổ. Tình đời tay trắng
TTITLE4=Mạnh Quỳnh, Phi Nhung - Vọng cổ. Tình sử Huyền Trân Công Chúa
TTITLE5=Mạnh Quỳnh - Tôi đã yêu (Trót lỡ yêu người)
TTITLE6=Mạnh Quỳnh - Vọng cổ. Võ Đông Sơ
TTITLE7=Phi Nhung - Con đò quê mẹ
TTITLE8=Mạnh Quỳnh - Nghèo rớt mồng tơi
TTITLE9=Mạnh Quỳnh, Phi Nhung - Tân cổ. Hơn anh giận em
EXTD=
EXTT0=
EXTT1=
EXTT2=
EXTT3=
EXTT4=
EXTT5=
EXTT6=
EXTT7=
EXTT8=
EXTT9=
PLAYORDER=
